<svg width="26" height="15" viewBox="0 0 26 15" fill="none" xmlns="http://www.w3.org/2000/svg">
<path d="M10.9999 7.4999C10.9999 11.6356 14.3643 15 18.5 15C22.6356 15 25.9999 11.6356 25.9999 7.4999C25.9999 3.36435 22.6356 0 18.5 0C14.3643 0 10.9999 3.36435 10.9999 7.4999ZM15.2858 7.4999C15.2858 5.72778 16.7279 4.28563 18.5 4.28563C20.2722 4.28563 21.7143 5.72778 21.7143 7.4999C21.7143 9.27203 20.2722 10.7142 18.5 10.7142C16.7279 10.7142 15.2858 9.27203 15.2858 7.4999Z" fill="#4DD1E3"/>
<path d="M4.4692 2.99995H10C9.32732 4.35785 8.9386 5.8822 8.9386 7.49985C8.9386 9.11771 9.32732 10.6421 10 12H4.4692C2.00454 12 0 9.98164 0 7.49985C0 5.01826 2.00454 2.99995 4.4692 2.99995Z" fill="#4DD1E3"/>
</svg>
