<svg width="22" height="22" viewBox="0 0 22 22" fill="none" xmlns="http://www.w3.org/2000/svg">
<path d="M8.40909 0H1.59091C0.713636 0 0 0.686875 0 1.53125V5.46875C0 6.31312 0.713636 7 1.59091 7H8.40909C9.28636 7 10 6.31312 10 5.46875V1.53125C10 0.686875 9.28636 0 8.40909 0Z" fill="#4DD1E3"/>
<path d="M8.40909 9.00021H1.59091C0.713636 9.00021 0 9.72914 0 10.6252V20.3752C0 21.2713 0.713636 22.0002 1.59091 22.0002H8.40909C9.28636 22.0002 10 21.2713 10 20.3752V10.6252C10 9.72914 9.28636 9.00021 8.40909 9.00021Z" fill="#4DD1E3"/>
<path d="M20.4093 15.0001H13.5911C12.7139 15.0001 12.0002 15.687 12.0002 16.5314V20.4689C12.0002 21.3132 12.7139 22.0001 13.5911 22.0001H20.4093C21.2866 22.0001 22.0002 21.3132 22.0002 20.4689V16.5314C22.0002 15.687 21.2866 15.0001 20.4093 15.0001Z" fill="#4DD1E3"/>
<path d="M20.4093 0H13.5911C12.7139 0 12.0002 0.728929 12.0002 1.625V11.375C12.0002 12.2711 12.7139 13 13.5911 13H20.4093C21.2866 13 22.0002 12.2711 22.0002 11.375V1.625C22.0002 0.728929 21.2866 0 20.4093 0Z" fill="#4DD1E3"/>
</svg>
