<svg width="24" height="24" viewBox="0 0 24 24" fill="none" xmlns="http://www.w3.org/2000/svg">
<path d="M3.75 15H6.24994C6.66394 15 6.99994 14.664 6.99994 14.25V11.75C6.99994 11.336 6.66394 11 6.24994 11H3.75C3.336 11 3 11.336 3 11.75V14.25C3 14.664 3.336 15 3.75 15Z" fill="#C5C4C9"/>
<path d="M3.75 21H6.24994C6.66394 21 6.99994 20.664 6.99994 20.25V17.75C6.99994 17.336 6.66394 17 6.24994 17H3.75C3.336 17 3 17.336 3 17.75V20.25C3 20.664 3.336 21 3.75 21Z" fill="#C5C4C9"/>
<path d="M10.75 15H13.2501C13.6641 15 14.0001 14.664 14.0001 14.25V11.75C14.0001 11.336 13.6641 11 13.2501 11H10.75C10.336 11 9.99996 11.336 9.99996 11.75V14.25C9.99996 14.664 10.336 15 10.75 15Z" fill="#C5C4C9"/>
<path d="M10.75 21H13.2501C13.6641 21 14.0001 20.664 14.0001 20.25V17.75C14.0001 17.336 13.6641 17 13.2501 17H10.75C10.336 17 9.99996 17.336 9.99996 17.75V20.25C9.99996 20.664 10.336 21 10.75 21Z" fill="#C5C4C9"/>
<path d="M17.75 15H20.25C20.664 15 21 14.664 21 14.25V11.75C21 11.336 20.664 11 20.25 11H17.75C17.336 11 17 11.336 17 11.75V14.25C17 14.664 17.336 15 17.75 15Z" fill="#C5C4C9"/>
<path d="M21 3H20.0001V0.999939C20.0001 0.448059 19.552 0 18.9999 0H18C17.4479 0 17.0001 0.448059 17.0001 0.999939V3H6.99994V0.999939C6.99994 0.448059 6.55206 0 6 0H5.00006C4.448 0 3.99994 0.448059 3.99994 0.999939V3H3C1.34601 3 0 4.34601 0 6V21C0 22.654 1.34601 24 3 24H21C22.654 24 24 22.654 24 21V6C24 4.34601 22.654 3 21 3ZM21.9999 21C21.9999 21.551 21.551 21.9999 21 21.9999H3C2.44904 21.9999 2.00006 21.551 2.00006 21V10.04H21.9999V21Z" fill="#C5C4C9"/>
</svg>

