<svg width="228" height="239" viewBox="0 0 228 239" fill="none" xmlns="http://www.w3.org/2000/svg">
<circle cx="114" cy="124.474" r="114" fill="#B2EBF3"/>
<g clip-path="url(#clip0_310_9291)">
<mask id="mask0_310_9291" style="mask-type:luminance" maskUnits="userSpaceOnUse" x="12" y="0" width="164" height="130">
<path d="M175.632 0H12.0847V129.71H175.632V0Z" fill="white"/>
</mask>
<g mask="url(#mask0_310_9291)">
<path d="M83.8481 38.1426L84.8133 39.9836L86.8666 40.3313L85.4124 41.8195L85.7119 43.8753L83.8481 42.9548L81.9817 43.8753L82.2838 41.8195L80.8296 40.3313L82.8803 39.9836L83.8481 38.1426Z" fill="#D5F3F9"/>
<path d="M145.125 1.13086L146.09 2.97188L148.143 3.31963L146.689 4.80779L146.989 6.86616L145.125 5.94309L143.258 6.86616L143.56 4.80779L142.106 3.31963L144.157 2.97188L145.125 1.13086Z" fill="#D5F3F9"/>
<path d="M42.0266 96.7227L44.0953 96.4977L45.529 98.0037L45.9566 95.9709L47.8358 95.076L46.0283 94.0404L45.7569 91.9795L44.2131 93.3756L42.1674 92.9972L43.02 94.8944L42.0266 96.7227Z" fill="#D5F3F9"/>
<path d="M137.843 53.6691L138.658 52.6847L139.933 52.7333L139.246 51.6568L139.687 50.4601L138.45 50.7797L137.444 49.9922L137.367 51.2656L136.307 51.9738L137.495 52.4418L137.843 53.6691Z" fill="#D5F3F9"/>
<path d="M127.759 10.8599L127.113 9.75781L127.595 8.57905L126.351 8.85264L125.375 8.0293L125.25 9.29756L124.164 9.97004L125.334 10.4789L125.636 11.719L126.486 10.7653L127.759 10.8599Z" fill="#D5F3F9"/>
<path d="M159.106 58.3377C156.039 44.5556 149.377 38.5569 128.117 30.4385C118.726 26.8511 111.673 19.3898 107.717 8.85767C104.763 0.989855 104.568 -5.75289 104.56 -6.03671L108.022 -6.12109C108.022 -6.05717 108.222 0.406864 110.994 7.74283C114.648 17.4031 120.826 23.9541 129.351 27.2091C151.71 35.7468 159.142 42.5612 162.486 57.5885L160.146 55.4355L159.106 58.3403V58.3377Z" fill="white"/>
<path d="M117.205 89.2183L117.039 86.7687L114.612 87.0577C114.714 86.9477 124.96 75.8095 123.104 63.513C122.034 56.4225 117.141 50.2219 108.567 45.0875C92.0665 35.2022 87.6065 21.3869 86.7693 11.5374C85.8681 0.928507 88.8175 -7.25893 88.943 -7.60156L92.215 -6.5353L90.579 -7.06971L92.215 -6.53786C92.1868 -6.45859 89.3577 1.44246 90.2308 11.3942C91.388 24.5882 98.1803 34.9977 110.423 42.3311C119.899 48.0075 125.321 54.9881 126.535 63.0758C128.606 76.8758 117.671 88.7223 117.205 89.2209V89.2183Z" fill="white"/>
<path d="M64.5696 99.6941C54.385 88.4997 48.9419 77.3308 47.9358 65.5483C47.0602 55.3127 49.5922 44.6117 55.6754 32.8266C66.1979 12.4424 62.3192 -4.63049 62.2782 -4.8018L65.6603 -5.49219C65.8369 -4.75322 69.8309 12.8413 58.7988 34.2125C46.4636 58.11 49.0597 77.6658 67.2169 97.6204L64.7027 97.513L64.5722 99.6916L64.5696 99.6941Z" fill="white"/>
<path d="M44.784 122.518C38.0711 114.648 33.4217 106.225 30.9639 97.4829C28.8312 89.8887 28.291 81.8214 29.3612 73.5036C31.266 58.7115 37.856 45.3257 43.8828 33.9421C54.7126 13.4888 53.8575 -6.70616 53.8473 -6.90816L57.3061 -7.08203C57.3497 -6.22289 58.2381 14.2278 46.9449 35.5581C33.6419 60.6855 21.6114 90.0242 47.4185 120.273L44.5229 119.813L44.7815 122.516L44.784 122.518Z" fill="white"/>
<path d="M144.712 25.4269C142.808 25.4269 141.512 24.4425 141 23.2535C140.363 21.7705 140.821 19.6073 143.286 18.1217C143.502 17.9913 143.714 17.8736 143.929 17.7662C141.115 16.4238 136.617 16.1502 134.077 17.0094L135.114 15.4931L133.309 14.7413C137.096 13.4628 143.758 14.1251 146.922 16.8585C149.682 16.5338 152.373 17.5029 155.002 18.4515C157.432 19.326 159.723 20.1545 162.035 20.0036L160.443 20.9983L162.191 22.3918C159.38 22.5759 156.738 21.6247 154.185 20.7042C152.291 20.0215 150.534 19.3874 148.84 19.2314C149.405 20.2695 149.707 21.4202 149.434 22.5145C149.208 23.4197 148.507 24.6138 146.456 25.1789C145.829 25.3502 145.248 25.4295 144.712 25.4295V25.4269ZM146.115 19.4641C145.586 19.6226 145.056 19.8527 144.526 20.1724C143.297 20.9113 142.977 21.7781 143.205 22.3074C143.443 22.8597 144.362 23.2689 145.819 22.8674C146.569 22.6603 147.001 22.3458 147.104 21.9341C147.255 21.3307 146.853 20.3692 146.113 19.4666L146.115 19.4641Z" fill="white"/>
<path d="M56.7403 67.9492L56.9042 66.0417L54.9763 66.3997C56.2001 65.0112 58.3789 62.5361 61.231 61.1553C61.0159 60.3473 60.9468 59.5291 61.0466 58.762C61.446 55.6732 63.8117 52.7633 66.6791 51.7252C67.4959 48.9407 69.4442 46.0743 71.5257 44.3816C73.3972 42.8576 75.2687 42.3846 76.7972 43.0494C76.7972 43.0494 74.8591 43.4866 74.7951 44.1284L76.6615 45.0924C76.6615 45.0924 74.1499 45.2765 73.0106 46.2021C71.4693 47.4551 70.1252 49.3907 69.3469 51.2598C71.5308 51.1857 74.3342 51.6894 75.3788 53.8117C76.0035 55.08 75.8678 56.4019 75.0076 57.44C73.8632 58.8208 71.5538 59.5138 69.7514 59.0151C67.9593 58.5216 66.7688 57.2892 66.4026 55.5453C66.3335 55.2231 66.2951 54.8882 66.2849 54.543C64.7795 55.5504 63.612 57.2866 63.3841 59.0612C63.3304 59.4703 63.3611 59.9126 63.4635 60.3652C64.951 60.0328 66.5691 60.0609 68.2921 60.6721C69.7796 61.2014 71.2824 62.3929 71.2799 63.8632C71.2799 64.4947 70.988 65.6531 69.0576 66.3332C67.3166 66.9469 65.4886 66.5812 63.9115 65.3053C63.2203 64.7453 62.6263 64.0549 62.1603 63.293C60.2094 64.2748 58.4275 66.0417 56.748 67.9492H56.7403ZM64.4876 62.5489C64.7513 62.8966 65.0508 63.2137 65.3811 63.4796C66.0314 64.0064 67.0606 64.5433 68.2665 64.1189C68.6224 63.9936 68.799 63.8785 68.8835 63.812C68.7478 63.5972 68.2895 63.1677 67.4959 62.8864C66.4487 62.5131 65.4477 62.421 64.4876 62.5489ZM68.6684 53.6557C68.6044 54.1697 68.6121 54.6478 68.6992 55.0621C68.8861 55.9519 69.4186 56.4888 70.3736 56.7522C71.2722 57.0002 72.6419 56.6065 73.1949 55.9417C73.3844 55.7141 73.5406 55.4047 73.2666 54.8473C72.7341 53.7657 70.4068 53.4384 68.6684 53.6557Z" fill="white"/>
<path d="M31.0125 45.6036L30.5849 44.3328L29.2766 44.5323C29.9039 43.5197 30.4723 42.5046 30.8051 41.5662C30.1522 41.6096 29.5019 41.5227 28.9412 41.2875C27.9018 40.8528 27.2745 39.9629 27.2233 38.8404C27.1721 37.7205 27.7149 36.7309 28.634 36.2579C29.5455 35.79 30.6387 35.9101 31.4912 36.575C32.0878 37.0403 32.5 37.5594 32.7637 38.1091C33.5573 36.7258 34.1385 34.5038 34.0489 33.2867C34.0284 33.0182 33.9977 32.7625 33.9542 32.5222C33.8441 32.5554 33.7314 32.5861 33.6188 32.6142C33.5804 32.6244 29.7375 33.591 27.9248 32.2076C27.3437 31.7627 27.0288 31.1388 27.0211 30.4024C27.0057 29.2211 27.5485 28.5282 28.0042 28.1548C29.3022 27.0962 31.2711 27.4159 31.8446 27.5412C33.2604 27.8454 34.3561 28.6125 35.0832 29.7734C36.2072 29.0447 37.1058 27.9554 37.2697 26.5823C37.4899 24.7489 36.4811 22.775 34.6403 21.4351C32.8277 20.1131 30.6848 19.7552 29.0513 20.5018L29.6684 19.1134L28.2039 18.6454C30.5107 17.5945 33.437 18.0318 35.8462 19.7859C38.281 21.5604 39.6046 24.258 39.2974 26.8227C39.0567 28.8273 37.7792 30.5916 35.8667 31.6988C35.9742 32.1463 36.0459 32.627 36.0843 33.1358C36.2225 35.028 35.1754 38.9632 33.4447 40.5255C33.3372 40.6227 33.2194 40.7147 33.0965 40.7991C32.8098 42.6938 31.6628 44.5425 31.0099 45.6011L31.0125 45.6036ZM29.8015 38.012C29.7221 38.012 29.6428 38.0299 29.5711 38.0682C29.3611 38.1756 29.251 38.4236 29.2638 38.7458C29.2792 39.0808 29.4123 39.27 29.7272 39.403C30.0908 39.5538 30.5926 39.5692 31.0611 39.4746C30.9587 38.9785 30.6976 38.5413 30.2342 38.1782C30.0934 38.0682 29.9423 38.012 29.8015 38.012ZM30.5055 29.4308C29.9884 29.4308 29.5455 29.5356 29.3048 29.7299C29.1921 29.822 29.0641 29.978 29.0693 30.3717C29.0693 30.4868 29.0974 30.5252 29.1717 30.584C29.8092 31.0698 31.9342 30.9394 33.1144 30.6351C33.14 30.6274 33.1631 30.6223 33.1887 30.6146C32.756 30.0521 32.1646 29.689 31.4196 29.5279C31.1072 29.4615 30.7949 29.4282 30.5055 29.4282V29.4308Z" fill="#B2EBF3"/>
<path d="M105.231 65.7812L105.72 70.3991L109.335 67.4791L106.414 71.0921L111.038 71.5805L106.414 72.0714L109.335 75.6819L105.72 72.7618L105.231 77.3797L104.74 72.7618L101.125 75.6819L104.046 72.0714L99.4246 71.5805L104.046 71.0921L101.125 67.4791L104.74 70.3991L105.231 65.7812Z" fill="white"/>
<path d="M24.868 51.6152L25.2725 55.4072L28.2398 53.0088L25.8409 55.9749L29.6377 56.3763L25.8409 56.7803L28.2398 59.7439L25.2725 57.348L24.868 61.14L24.466 57.348L21.4962 59.7439L23.8977 56.7803L20.1008 56.3763L23.8977 55.9749L21.4962 53.0088L24.466 55.4072L24.868 51.6152Z" fill="#D5F3F9"/>
<path d="M103.416 10.9541L103.7 13.644L105.807 11.9437L104.105 14.048L106.798 14.3319L104.105 14.6182L105.807 16.7226L103.7 15.0222L103.416 17.7122L103.129 15.0222L101.022 16.7226L102.725 14.6182L100.031 14.3319L102.725 14.048L101.022 11.9437L103.129 13.644L103.416 10.9541Z" fill="white"/>
<path d="M77.2836 82.6826L77.6139 85.7842L80.0436 83.823L78.0799 86.2496L81.188 86.5795L78.0799 86.9093L80.0436 89.3359L77.6139 87.3747L77.2836 90.4763L76.9559 87.3747L74.5263 89.3359L76.49 86.9093L73.3818 86.5795L76.49 86.2496L74.5263 83.823L76.9559 85.7842L77.2836 82.6826Z" fill="white"/>
<path d="M75.5119 25.6212C75.5119 26.5059 74.7951 27.2218 73.9092 27.2218C73.0234 27.2218 72.3065 26.5059 72.3065 25.6212C72.3065 24.7365 73.0234 24.0205 73.9092 24.0205C74.7951 24.0205 75.5119 24.7365 75.5119 25.6212Z" fill="#D5F3F9"/>
<path d="M105.008 30.1036C105.008 30.9883 104.292 31.7043 103.406 31.7043C102.52 31.7043 101.803 30.9883 101.803 30.1036C101.803 29.2189 102.52 28.5029 103.406 28.5029C104.292 28.5029 105.008 29.2189 105.008 30.1036Z" fill="#D5F3F9"/>
<path d="M45.0528 7.04989C45.0528 7.9346 44.336 8.65055 43.4501 8.65055C42.5643 8.65055 41.8474 7.9346 41.8474 7.04989C41.8474 6.16517 42.5643 5.44922 43.4501 5.44922C44.336 5.44922 45.0528 6.16517 45.0528 7.04989Z" fill="#D5F3F9"/>
<path d="M70.1124 40.1348C70.1124 41.0196 69.3955 41.7355 68.5097 41.7355C67.6238 41.7355 66.907 41.0196 66.907 40.1348C66.907 39.2501 67.6238 38.5342 68.5097 38.5342C69.3955 38.5342 70.1124 39.2501 70.1124 40.1348Z" fill="#D5F3F9"/>
<path d="M116.87 3.20711C116.87 4.09183 116.153 4.80778 115.267 4.80778C114.381 4.80778 113.665 4.09183 113.665 3.20711C113.665 2.3224 114.381 1.60645 115.267 1.60645C116.153 1.60645 116.87 2.3224 116.87 3.20711Z" fill="#D5F3F9"/>
<path d="M41.5274 65.6485C41.5274 64.7638 40.8106 64.0479 39.9247 64.0479C39.0389 64.0479 38.322 64.7638 38.322 65.6485C38.322 66.5332 39.0389 67.2492 39.9247 67.2492C40.8106 67.2492 41.5274 66.5332 41.5274 65.6485Z" fill="#D5F3F9"/>
</g>
</g>
<g clip-path="url(#clip1_310_9291)">
<g style="mix-blend-mode:multiply" opacity="0.2">
<path d="M193.108 228.615C193.108 230.95 177.535 232.835 158.318 232.835C139.1 232.835 123.516 230.95 123.516 228.615C123.516 226.279 139.092 224.395 158.318 224.395C177.543 224.395 193.108 226.287 193.108 228.615Z" fill="#231F20"/>
</g>
<path d="M142.354 197.13C138.097 200.547 132.287 201.928 126.774 200.931C125.4 200.681 124.014 200.325 122.86 199.533C121.707 198.741 120.822 197.447 120.85 196.049C120.905 192.807 124.211 193.631 126.316 193.033C129.017 192.269 131.482 190.804 133.413 188.75C138.042 183.825 139.831 177.138 139.847 177.071C140.7 173.698 144.12 171.667 147.485 172.523C150.849 173.378 152.887 176.822 152.03 180.195C150.802 185.04 148.401 189.791 145.494 193.825C144.59 195.076 143.531 196.18 142.35 197.13H142.354Z" fill="white"/>
<path d="M164.19 208.936L143.152 204.882C143.152 204.882 136.715 194.292 139.144 181.644C142.268 165.358 124.602 155.006 128.966 132.239C133.496 108.625 155.285 94.6818 175.766 98.5891C175.766 98.5891 175.79 98.5931 175.802 98.5971C175.813 98.5971 175.825 98.601 175.837 98.605C196.303 102.587 211.381 123.64 206.851 147.254C202.483 170.017 181.173 172.171 178.049 188.461C175.624 201.109 164.19 208.94 164.19 208.94V208.936Z" fill="white"/>
<path d="M165.13 228.892C172.843 228.892 175.572 192.788 175.572 192.788C176.011 188.825 173.163 185.254 169.206 184.811C165.249 184.368 161.69 187.23 161.252 191.192C161.252 191.192 157.417 228.892 165.13 228.892Z" fill="white"/>
<path d="M150.154 228.595C159.159 228.595 153.523 190.345 153.523 190.345C153.12 186.378 149.586 183.484 145.628 183.888C141.671 184.288 138.788 187.835 139.187 191.802C139.187 191.802 141.869 228.595 150.154 228.595Z" fill="white"/>
<path d="M177.484 101.086C177.484 101.086 182.109 101.07 184.395 98.5091C186.745 95.8765 180.92 95.0769 178.554 97.0523C177.515 97.9193 177.018 98.7229 177.018 98.7229C177.018 98.7229 176.903 94.7522 175.059 93.8259C173.215 92.8995 171.793 94.6651 172.591 96.2011L173.384 97.7332C173.384 97.7332 172.01 95.7855 169.581 95.0175C167.61 94.392 165.861 94.3841 166.584 96.0705C167.069 97.2067 171.406 100.188 171.406 100.188L177.484 101.086Z" fill="white"/>
<path d="M135.909 115.944C136.801 116.577 137.726 117.155 138.654 117.717C139.586 118.275 140.542 118.786 141.513 119.265C142.236 119.629 142.978 119.966 143.713 120.275C144.254 119.332 144.799 118.39 145.356 117.456L145.399 117.393C145.723 116.925 146.367 116.815 146.829 117.143L146.888 117.183C147.848 117.86 148.823 118.513 149.819 119.138C150.818 119.756 151.805 120.385 152.824 120.963C153.839 121.549 154.866 122.107 155.909 122.638C156.157 122.761 156.414 122.887 156.671 123.014L156.311 120.86C156.244 120.441 156.363 119.989 156.671 119.653C157.204 119.075 158.108 119.039 158.685 119.578L158.701 119.594C160.889 121.62 163.361 123.414 165.987 124.981C168.59 126.597 171.339 128.002 174.127 129.348C175.521 130.025 176.935 130.658 178.361 131.276C179.778 131.909 181.216 132.515 182.661 133.093C185.545 134.289 188.471 135.389 191.421 136.478C188.305 136.034 185.236 135.298 182.192 134.475C180.675 134.043 179.166 133.584 177.662 133.093C176.165 132.586 174.68 132.04 173.207 131.462C170.257 130.302 167.377 128.932 164.585 127.365C162.919 126.387 161.272 125.342 159.704 124.166L159.858 125.187V125.223C159.901 125.476 159.874 125.742 159.759 125.995C159.451 126.696 158.634 127.008 157.938 126.696C156.766 126.173 155.703 125.627 154.637 125.021C153.574 124.423 152.528 123.798 151.505 123.145C150.482 122.487 149.463 121.822 148.488 121.098C147.804 120.595 147.133 120.077 146.466 119.55C145.928 120.326 145.391 121.102 144.838 121.87L144.779 121.953C144.546 122.274 144.112 122.392 143.748 122.21C142.698 121.688 141.754 121.13 140.798 120.528C139.858 119.918 138.95 119.261 138.069 118.58C137.185 117.899 136.351 117.159 135.55 116.387C134.74 115.623 134.005 114.788 133.302 113.937C134.14 114.657 135.028 115.306 135.913 115.944H135.909Z" fill="#231F20"/>
<path d="M141.434 140.299C140.664 142.444 138.302 143.553 136.162 142.781C134.021 142.009 132.911 139.642 133.685 137.496C134.456 135.35 136.817 134.238 138.958 135.014C141.098 135.786 142.208 138.153 141.434 140.299Z" fill="#231F20"/>
<path d="M135.609 132.314C137.011 132.662 138.192 132.939 139.234 133.462C139.752 133.719 140.238 134.028 140.704 134.42C141.177 134.804 141.62 135.275 142.137 135.797C142.232 134.333 141.272 132.836 139.874 132.167C139.183 131.827 138.425 131.676 137.69 131.696C136.96 131.728 136.229 131.894 135.613 132.31L135.609 132.314Z" fill="#231F20"/>
<path d="M169.336 150.385C168.566 152.531 169.676 154.894 171.817 155.67C173.957 156.442 176.315 155.333 177.089 153.188C177.863 151.042 176.749 148.675 174.613 147.903C172.472 147.131 170.11 148.239 169.34 150.389L169.336 150.385Z" fill="#231F20"/>
<path d="M178.906 147.958C178.696 147.242 178.242 146.648 177.697 146.157C177.148 145.67 176.465 145.298 175.719 145.124C174.218 144.744 172.524 145.278 171.667 146.47C172.401 146.399 173.037 146.319 173.649 146.323C174.257 146.323 174.826 146.395 175.387 146.525C176.52 146.79 177.606 147.329 178.91 147.958H178.906Z" fill="#231F20"/>
<path d="M160.205 146.743C162.713 139.771 170.411 136.145 177.365 138.659C184.32 141.173 187.938 148.889 185.434 155.86C182.926 162.831 175.229 166.461 168.274 163.944C161.319 161.434 157.702 153.714 160.209 146.743H160.205ZM162.915 147.721C160.944 153.196 163.788 159.253 169.246 161.228C174.708 163.203 180.75 160.353 182.717 154.878C184.684 149.407 181.844 143.346 176.382 141.375C170.924 139.399 164.878 142.25 162.911 147.721H162.915Z" fill="#231F20"/>
<path d="M125.487 134.198C127.994 127.227 135.692 123.6 142.647 126.114C149.601 128.628 153.219 136.344 150.711 143.315C148.203 150.286 140.506 153.913 133.551 151.399C126.596 148.885 122.979 141.169 125.487 134.198ZM128.2 135.176C126.229 140.651 129.073 146.708 134.531 148.683C139.993 150.658 146.031 147.808 148.002 142.333C149.969 136.862 147.129 130.801 141.671 128.83C136.209 126.854 130.167 129.705 128.2 135.176Z" fill="#231F20"/>
<path d="M160.932 145.991L163.345 144.411C161.86 142.131 159.724 140.441 157.164 139.514C154.621 138.596 151.916 138.528 149.337 139.316L150.178 142.079C152.157 141.474 154.234 141.525 156.185 142.23C158.152 142.942 159.791 144.241 160.928 145.991H160.932Z" fill="#231F20"/>
<path d="M159.57 153.79L153.669 151.691L153.563 151.652L147.658 149.554C147.658 149.554 146.454 152.907 145.64 156.98C144.914 160.626 146.288 163.785 148.922 164.771C148.922 164.771 148.942 164.783 148.95 164.787C148.958 164.787 148.966 164.791 148.973 164.791C148.981 164.791 148.985 164.799 148.993 164.803C149.005 164.803 149.013 164.803 149.025 164.811C151.687 165.705 154.744 164.118 156.469 160.828C158.401 157.147 159.57 153.786 159.57 153.786V153.79Z" fill="#231F20"/>
<path d="M156.469 160.832C156.829 160.147 157.164 159.47 157.469 158.825C156.39 157.926 152.733 155.705 145.447 158.865C145.439 161.679 146.75 163.963 148.918 164.775C148.918 164.775 148.938 164.787 148.946 164.791C148.954 164.791 148.962 164.795 148.97 164.795C148.977 164.795 148.981 164.803 148.989 164.807C149.001 164.807 149.009 164.807 149.021 164.815C151.683 165.709 154.74 164.122 156.465 160.832H156.469Z" fill="#E23D3A"/>
<path d="M198.261 183.675C193.897 184.866 189.332 185.349 184.834 185.686C183.072 185.816 181.311 185.915 179.545 185.979C176.805 186.082 175.241 182.34 175.616 179.914C176.133 176.569 178.736 173.505 182.239 173.433C188.301 173.307 203.21 172.345 208.407 164.708C210.54 161.577 212.365 156.434 215.749 157.23C219.13 158.03 218.719 163.524 217.921 166.913C216.472 173.093 212.017 178.516 198.629 183.572C198.51 183.615 198.384 183.639 198.261 183.671V183.675Z" fill="white"/>
<path d="M212.44 169.154C212.44 169.154 212.416 169.161 212.404 169.161C211.314 169.443 210.165 169.019 209.521 168.093L206.046 163.101C205.193 161.877 205.493 160.191 206.713 159.34C207.653 158.683 208.87 158.71 209.766 159.316L210.445 152.733C210.599 151.248 211.926 150.171 213.403 150.322C214.884 150.476 215.959 151.802 215.805 153.287L214.407 166.822C214.292 167.93 213.506 168.857 212.432 169.15L212.44 169.154Z" fill="white"/>
<path d="M153.025 181.545L152.986 181.533L151.363 181.097L150.782 176.85L153.322 175.234L154.589 175.579L154.629 175.587L155.897 175.931L157.279 178.603L154.649 181.984L153.025 181.545Z" fill="#231F20"/>
<path d="M147.721 201.121L144.554 195.515L151.157 182.091L152.721 182.514L152.741 182.518L152.765 182.526L154.329 182.95L153.31 197.878L147.761 201.129L147.753 201.172L147.737 201.144L147.71 201.16L147.721 201.121Z" fill="#00BDD6"/>
<path d="M220.749 197.178H101.399L99.8513 188.975L102.272 179.589L101.399 166.79H220.749V197.178Z" fill="#F28500"/>
<path d="M117.335 196.909C117.086 196.351 116.992 195.741 117.165 195.183C117.56 193.936 119.29 194.003 120.443 194.213C121.806 194.462 122.829 195.563 123.966 196.252C124.894 196.814 124.677 196.842 125.526 196.533C126.273 196.264 127.181 195.515 128.062 195.262C130.167 194.652 132.066 195.06 130.949 197.657C130.115 199.593 127.615 200.009 125.755 200.06C123.469 200.119 120.534 199.775 118.599 198.453C118.089 198.104 117.612 197.542 117.331 196.913L117.335 196.909Z" fill="white"/>
<path d="M83.888 168.077C81.3841 169.902 76.1077 176.506 70.0691 177.076C68.4065 177.206 66.6608 177.266 65.3023 178.346C64.2478 179.186 62.9524 181.058 64.2438 182.242C65.3891 183.295 67.743 183.54 70.0336 183.441C72.3084 183.342 74.5517 182.966 76.5698 181.862C81.0484 179.415 84.8871 175.429 88.3744 171.684C88.3744 171.684 88.9392 171.027 89.5 170.061C89.5 170.061 86.0285 166.518 83.888 168.077Z" fill="#231F20"/>
<g style="mix-blend-mode:multiply" opacity="0.2">
<path d="M87.9322 228.615C87.9322 230.95 75.4127 232.835 59.9667 232.835C44.5208 232.835 31.9934 230.95 31.9934 228.615C31.9934 226.279 44.5129 224.395 59.9667 224.395C75.4206 224.395 87.9322 226.287 87.9322 228.615Z" fill="#231F20"/>
</g>
<path d="M59.9509 93.2048C65.7327 84.3055 73.5959 87.4646 86.9211 95.1921C86.9211 95.1921 95.8387 99.626 97.0828 89.448C97.0828 89.448 102.482 120.089 71.2065 112.65C71.2065 112.65 52.139 105.228 59.9509 93.2048Z" fill="white"/>
<path d="M70.6182 203.417L50.1527 204.042C50.1527 204.042 48.7743 199.228 48.3991 186.921C47.9173 171.078 22.4479 161.41 21.7725 139.265C21.0735 116.292 38.4902 98.7231 58.4068 98.0778C58.4068 98.0778 58.4305 98.0778 58.4424 98.0778C58.4542 98.0778 58.4661 98.0778 58.474 98.0778C78.3945 97.5078 96.846 113.98 97.545 136.953C98.2203 159.098 71.811 175.238 68.7699 189.818C66.2581 201.865 70.6182 203.421 70.6182 203.421V203.417Z" fill="white"/>
<path d="M38.0437 120.117C39.3786 120.806 40.7688 121.364 42.1511 121.566C43.5294 121.756 44.8603 121.601 45.9385 120.944C46.4796 120.623 46.9614 120.208 47.3879 119.725C47.5972 119.483 47.7947 119.222 47.9645 118.949C48.1304 118.696 48.32 118.359 48.395 118.161C48.4464 118.038 48.5174 117.916 48.6083 117.805C49.0743 117.255 49.8958 117.195 50.4368 117.658L50.4921 117.706C54.7337 121.332 59.4809 124.305 64.698 126.166C66.0013 126.633 67.3283 127.037 68.675 127.381C70.0257 127.706 71.4001 127.963 72.7863 128.161C75.5587 128.517 78.4023 128.656 81.2695 128.343C79.9307 128.909 78.501 129.246 77.0595 129.495C75.614 129.729 74.1488 129.855 72.6757 129.851C71.2026 129.867 69.7255 129.756 68.2603 129.543C66.7951 129.341 65.3378 129.036 63.9121 128.616C61.0606 127.789 58.3079 126.589 55.7606 125.057C53.6516 123.802 51.6809 122.33 49.8563 120.711C49.647 120.968 49.4337 121.217 49.1967 121.451C48.5609 122.088 47.8105 122.631 46.9732 123.003C45.2987 123.779 43.3675 123.818 41.7522 123.312C40.1172 122.836 38.7112 121.981 37.4632 121C36.2112 120.022 35.1173 118.89 34.126 117.686C35.4056 118.573 36.697 119.416 38.0319 120.117H38.0437Z" fill="#231F20"/>
<path d="M78.4457 142.975C78.6827 142.104 79.2158 141.34 79.8872 140.71C80.5665 140.081 81.4275 139.614 82.3674 139.408C83.3034 139.202 84.2947 139.277 85.1675 139.582C86.0403 139.891 86.8144 140.393 87.4068 141.074C86.5261 140.892 85.7204 140.706 84.9306 140.635C84.1447 140.56 83.3864 140.591 82.6557 140.75C82.5175 140.777 82.3832 140.817 82.249 140.853C84.3856 141.027 85.993 142.88 85.8547 145.025C85.7165 147.199 83.8445 148.845 81.6842 148.703C79.52 148.564 77.877 146.692 78.0192 144.519C78.0547 143.96 78.2048 143.438 78.4497 142.967L78.4457 142.975Z" fill="#231F20"/>
<path d="M48.2884 141.019C48.166 140.124 47.7355 139.301 47.151 138.584C46.5586 137.875 45.7648 137.298 44.8604 136.977C43.956 136.648 42.9686 136.597 42.0603 136.787C41.1519 136.985 40.3226 137.381 39.6472 137.978C40.5437 137.911 41.3691 137.832 42.159 137.868C42.9489 137.891 43.6953 138.022 44.4022 138.275C44.5326 138.323 44.6629 138.378 44.7893 138.43C42.6487 138.327 40.8162 139.958 40.678 142.107C40.5358 144.277 42.1748 146.149 44.343 146.292C46.5073 146.43 48.3753 144.787 48.5135 142.614C48.5491 142.056 48.4701 141.518 48.2845 141.019H48.2884Z" fill="#231F20"/>
<path d="M74.9624 154.114C74.8755 155.381 76.8858 156.553 79.4529 156.731C82.0199 156.905 84.1684 156.023 84.2553 154.756C84.3422 153.489 82.3319 152.317 79.7649 152.143C77.1978 151.969 75.0493 152.852 74.9624 154.114Z" fill="#FDDDCE"/>
<path d="M40.595 152.115C40.5081 153.378 42.5183 154.55 45.0854 154.728C47.6525 154.906 49.8049 154.02 49.8918 152.753C49.9787 151.486 47.9645 150.314 45.4014 150.14C42.8343 149.962 40.6858 150.849 40.5989 152.115H40.595Z" fill="#FDDDCE"/>
<path d="M68.7067 153.635L63.1183 153.437H63.0196L57.4312 153.231C57.4312 153.231 57.3009 156.406 57.6959 160.096C58.0513 163.394 60.0655 165.717 62.5733 165.852C62.5733 165.852 62.5931 165.856 62.601 165.856C62.6089 165.856 62.6168 165.856 62.6247 165.856C62.6326 165.856 62.6405 165.856 62.6444 165.856C62.6563 165.856 62.6642 165.856 62.676 165.856C65.1838 165.903 67.3599 163.734 67.9523 160.464C68.6119 156.814 68.7106 153.635 68.7106 153.635H68.7067Z" fill="#231F20"/>
<path d="M67.9483 160.464C68.0707 159.783 68.1734 159.118 68.2642 158.489C67.1071 158.014 63.3986 157.103 58.0354 161.751C58.7818 164.15 60.5116 165.741 62.5732 165.852C62.5732 165.852 62.593 165.856 62.6009 165.856C62.6088 165.856 62.6167 165.856 62.6246 165.856C62.6325 165.856 62.6404 165.856 62.6443 165.856C62.6562 165.856 62.6641 165.856 62.6759 165.856C65.1837 165.904 67.3598 163.734 67.9522 160.464H67.9483Z" fill="#E23D3A"/>
<path d="M69.7927 226.884C66.8386 227.308 64.0109 221.571 62.905 216.176C61.7637 210.61 59.4928 203.444 62.6207 198.179C63.9121 196.006 66.5148 195.602 68.6632 196.782C71.7121 198.46 70.2272 203.076 70.2627 205.958C70.2904 208.377 69.5716 211.473 69.2793 215.827C68.9041 221.338 72.8495 226.453 69.7967 226.888L69.7927 226.884Z" fill="white"/>
<path d="M48.5057 227.352C50.7963 229.264 56.2425 225.373 57.8736 220.111C59.556 214.684 62.518 206.176 59.9233 200.626C58.8491 198.334 56.3017 197.673 54.0466 198.639C50.8516 200.009 51.8745 204.747 51.5585 207.61C51.2939 210.013 51.7047 214.771 51.5704 219.134C51.4006 224.652 45.9504 225.218 48.5096 227.352H48.5057Z" fill="white"/>
<path d="M71.1987 190.052H48.17C40.1212 197.882 48.8059 215.392 48.8059 215.392H71.9728C71.9728 215.392 79.2475 197.882 71.1948 190.052H71.1987Z" fill="#404044"/>
<path d="M65.2074 184.197L58.8134 176.719C58.8134 176.719 45.666 174.775 43.1621 175.848C46.1873 179.755 48.3121 183.702 48.3121 188.073C48.3121 199.957 50.2433 204.569 50.2433 204.569H70.0138C70.0138 204.569 71.2026 199.882 71.2026 187.994C71.2026 186.715 73.3313 187.459 75.1559 184.328C76.7909 179.949 74.3226 179.083 77.4584 175.072C74.2594 176.074 70.4719 177.729 70.4719 177.729L65.2114 184.201L65.2074 184.197Z" fill="#404044"/>
<path d="M94.3656 197.083L62.9366 202.637L57.6721 172.708L89.1011 167.154L92.6635 179.838L91.455 189.787L94.3656 197.083Z" fill="#F28500"/>
<path d="M62.1822 192.217C62.0677 192.15 51.673 187.827 49.0506 180.717C48.4977 179.142 47.9922 177.463 46.598 176.426C45.5159 175.622 43.3793 174.846 42.5697 176.406C41.8509 177.788 42.2182 180.127 42.9054 182.324C43.5847 184.502 44.5246 186.576 46.1083 188.251C49.6193 191.96 54.4494 194.652 58.9595 197.067C58.9595 197.067 59.7415 197.447 60.8157 197.736L62.7944 192.467C62.431 192.308 62.1862 192.221 62.1862 192.221L62.1822 192.217Z" fill="#404044"/>
<path d="M62.7904 192.463L60.8118 197.732C62.5455 198.203 65.0692 198.46 66.2895 196.513C66.5067 196.164 68.1339 192.997 62.7904 192.463Z" fill="white"/>
<path d="M84.516 169.478C83.6076 171.224 84.2869 173.373 86.0286 174.284C86.5538 174.557 87.1146 174.688 87.6675 174.688C89.0498 174.688 90.7441 174.157 91.8578 172.419L85.7798 167.677C85.3256 168.176 84.8911 168.761 84.516 169.474V169.478Z" fill="white"/>
<path d="M91.2495 166.79C87.8412 164.339 83.8879 168.077 83.8879 168.077L85.7165 167.752L91.8577 172.419C91.8775 172.388 91.9012 172.356 91.9209 172.324C93.2361 169.672 92.1026 167.396 91.2535 166.786L91.2495 166.79Z" fill="#404044"/>
<path d="M68.9803 192.329L66.8241 180.644L68.9358 180.252L69.8486 185.199L75.2501 184.198L74.3373 179.251L76.4547 178.858L78.6108 190.544L76.4935 190.936L75.5775 185.972L70.176 186.974L71.0919 191.938L68.9803 192.329Z" fill="white"/>
<path d="M83.748 177.506L85.9042 189.191L83.7925 189.583L81.6364 177.897L83.748 177.506Z" fill="white"/>
<path d="M115.261 187.619L111.985 175.716L114.294 175.729L116.379 184.475L116.489 184.475L118.821 175.756L120.922 175.769L123.157 184.521L123.261 184.521L125.448 175.795L127.758 175.809L124.342 187.673L122.224 187.66L119.9 179.308L119.807 179.307L117.379 187.632L115.261 187.619Z" fill="white"/>
<path d="M132.111 187.719L132.181 175.835L139.891 175.881L139.88 177.685L134.318 177.652L134.299 180.879L139.462 180.909L139.451 182.714L134.288 182.683L134.269 185.927L139.878 185.96L139.867 187.765L132.111 187.719Z" fill="white"/>
<path d="M144.946 187.795L145.016 175.911L147.163 175.924L147.104 186.003L152.325 186.034L152.314 187.838L144.946 187.795Z" fill="white"/>
<path d="M166.844 180.05L164.679 180.037C164.619 179.681 164.507 179.365 164.343 179.089C164.179 178.81 163.973 178.573 163.728 178.378C163.482 178.183 163.201 178.036 162.885 177.937C162.573 177.835 162.236 177.783 161.873 177.781C161.229 177.777 160.657 177.936 160.157 178.258C159.657 178.576 159.265 179.046 158.979 179.667C158.694 180.284 158.549 181.039 158.543 181.933C158.538 182.842 158.674 183.609 158.952 184.233C159.234 184.854 159.621 185.324 160.113 185.644C160.609 185.961 161.178 186.121 161.818 186.125C162.173 186.127 162.505 186.082 162.815 185.991C163.128 185.896 163.408 185.757 163.656 185.573C163.908 185.388 164.12 185.161 164.291 184.892C164.467 184.622 164.588 184.313 164.656 183.965L166.82 183.99C166.736 184.554 166.557 185.083 166.284 185.576C166.015 186.07 165.663 186.505 165.229 186.882C164.794 187.254 164.287 187.545 163.707 187.755C163.127 187.96 162.484 188.061 161.778 188.057C160.736 188.05 159.807 187.803 158.992 187.315C158.177 186.826 157.537 186.124 157.071 185.209C156.606 184.293 156.377 183.197 156.384 181.92C156.392 180.64 156.636 179.547 157.116 178.64C157.596 177.73 158.246 177.036 159.067 176.557C159.888 176.078 160.816 175.842 161.85 175.848C162.51 175.852 163.123 175.949 163.689 176.138C164.255 176.327 164.759 176.602 165.2 176.965C165.642 177.323 166.004 177.762 166.287 178.283C166.573 178.799 166.759 179.388 166.844 180.05Z" fill="white"/>
<path d="M182.325 182.074C182.318 183.354 182.072 184.449 181.588 185.359C181.108 186.266 180.456 186.958 179.631 187.437C178.81 187.915 177.881 188.152 176.843 188.146C175.805 188.14 174.876 187.892 174.057 187.404C173.242 186.912 172.597 186.21 172.124 185.298C171.655 184.382 171.424 183.286 171.432 182.009C171.439 180.729 171.683 179.636 172.163 178.729C172.647 177.819 173.299 177.125 174.12 176.646C174.945 176.167 175.876 175.931 176.914 175.937C177.952 175.943 178.879 176.191 179.694 176.679C180.513 177.167 181.158 177.869 181.627 178.785C182.1 179.697 182.333 180.793 182.325 182.074ZM180.166 182.061C180.172 181.16 180.035 180.399 179.757 179.778C179.483 179.154 179.1 178.681 178.608 178.361C178.116 178.037 177.547 177.873 176.903 177.869C176.259 177.866 175.688 178.023 175.193 178.341C174.697 178.655 174.306 179.123 174.021 179.744C173.739 180.361 173.596 181.121 173.591 182.022C173.585 182.923 173.72 183.686 173.994 184.311C174.272 184.931 174.657 185.404 175.149 185.728C175.641 186.048 176.21 186.21 176.854 186.213C177.498 186.217 178.068 186.062 178.564 185.748C179.06 185.43 179.449 184.962 179.73 184.345C180.016 183.723 180.161 182.962 180.166 182.061Z" fill="white"/>
<path d="M187.324 176.161L189.952 176.177L193.421 184.808L193.56 184.809L197.13 176.219L199.758 176.235L199.688 188.118L197.627 188.106L197.675 179.942L197.565 179.941L194.241 188.051L192.701 188.042L189.473 179.876L189.363 179.875L189.315 188.057L187.254 188.045L187.324 176.161Z" fill="white"/>
<path d="M204.96 188.149L205.03 176.266L212.74 176.312L212.729 178.116L207.167 178.083L207.148 181.309L212.311 181.34L212.3 183.144L207.137 183.114L207.118 186.358L212.727 186.391L212.716 188.195L204.96 188.149Z" fill="white"/>
</g>
<defs>
<clipPath id="clip0_310_9291">
<rect width="163.548" height="129.71" fill="white" transform="translate(12.0847)"/>
</clipPath>
<clipPath id="clip1_310_9291">
<rect width="198.996" height="145.018" fill="white" transform="translate(21.7527 87.8164)"/>
</clipPath>
</defs>
</svg>
