<svg width="48" height="48" viewBox="0 0 48 48" fill="none" xmlns="http://www.w3.org/2000/svg">
<rect width="48" height="48" rx="24" fill="#DEDEE3"/>
<path d="M19.8649 31V16.4545H24.7797C25.916 16.4545 26.8488 16.6487 27.5779 17.0369C28.3071 17.4205 28.8469 17.9484 29.1973 18.6207C29.5476 19.2931 29.7228 20.0578 29.7228 20.9148C29.7228 21.7718 29.5476 22.5317 29.1973 23.1946C28.8469 23.8575 28.3095 24.3783 27.585 24.7571C26.8606 25.1312 25.935 25.3182 24.8081 25.3182H20.8308V23.7273H24.7512C25.5278 23.7273 26.1528 23.6136 26.6262 23.3864C27.1045 23.1591 27.4501 22.8371 27.6632 22.4205C27.881 21.9991 27.9899 21.4972 27.9899 20.9148C27.9899 20.3324 27.881 19.8234 27.6632 19.3878C27.4454 18.9522 27.0974 18.616 26.6191 18.3793C26.1409 18.1378 25.5088 18.017 24.7228 18.017H21.6262V31H19.8649ZM26.7115 24.4659L30.291 31H28.2456L24.7228 24.4659H26.7115Z" fill="white"/>
</svg>
