<svg width="240" height="200" viewBox="0 0 240 200" fill="none" xmlns="http://www.w3.org/2000/svg">
<g clip-path="url(#clip0_266_1398)">
<g style="mix-blend-mode:multiply" opacity="0.3">
<path d="M125.522 200C188.278 200 239.152 195.025 239.152 188.888C239.152 182.751 188.278 177.775 125.522 177.775C62.7665 177.775 11.8928 182.751 11.8928 188.888C11.8928 195.025 62.7665 200 125.522 200Z" fill="#231F20"/>
</g>
<path d="M152.744 101.063C152.744 92.7503 159.518 85.9872 167.845 85.9872H192.649C200.975 85.9872 207.753 92.7503 207.753 101.063V107.718H217.82V101.063C217.82 87.2095 206.522 75.9366 192.649 75.9366H167.845C153.968 75.9366 142.677 87.2095 142.677 101.063V119.293H152.744V101.063Z" fill="#404044"/>
<path d="M217.777 116.417H142.723C137.164 116.417 132.656 120.917 132.656 126.467V179.621C132.656 185.171 137.164 189.672 142.723 189.672H217.777C223.337 189.672 227.845 185.171 227.845 179.621V126.467C227.845 120.917 223.337 116.417 217.777 116.417ZM186.882 154.52V162.962C186.882 166.617 183.914 169.583 180.25 169.583C176.586 169.583 173.618 166.62 173.618 162.962V154.52C171.042 152.532 169.354 149.451 169.354 145.945C169.354 139.938 174.23 135.07 180.247 135.07C186.264 135.07 191.14 139.938 191.14 145.945C191.14 149.448 189.455 152.532 186.879 154.52H186.882Z" fill="#404044"/>
<path d="M108.897 152.164H80.8807C80.8807 152.164 72.9405 141.234 71.7285 122.769C70.3124 101.214 44.7666 92.9478 44.7666 62.7593C44.7666 32.5707 69.3168 0.400375 96.5786 0.3479C96.594 0.3479 96.6095 0.3479 96.6249 0.3479C96.6404 0.3479 96.6559 0.3479 96.6713 0.3479C123.936 0.400375 148.483 31.444 148.483 62.7593C148.483 94.0745 120.755 100.683 120.755 122.284C120.755 139.058 108.894 152.164 108.894 152.164H108.897Z" fill="white"/>
<path d="M113.461 113.064C113.461 113.064 108.906 122.312 112.23 126.307C115.551 130.301 119.759 130.758 125.488 127.541C128.169 126.038 134.421 123.831 140.314 119.55C155.205 108.734 149.949 100.797 145.057 101.865C138.131 103.378 134.316 108.419 128.849 110.549C119.066 114.361 113.454 113.064 113.454 113.064H113.461Z" fill="white"/>
<path d="M75.6275 113.361C75.6275 113.361 82.2505 121.266 79.9717 125.933C77.696 130.6 73.7167 132.042 67.3843 130.276C64.9974 129.609 62.5083 129.291 60.0873 128.757C55.839 127.816 51.7236 127.038 48.576 123.754C45.7839 120.84 43.8483 116.361 44.4018 112.286C44.6708 110.299 45.7159 107.567 47.1537 106.11C48.31 104.94 51.3 103.486 53.0098 104.193C55.6689 105.292 56.8593 107.289 56.3986 110.101C56.2533 110.99 55.8111 111.944 55.9905 112.873C56.4048 115 60.7428 114.682 62.3228 114.818C64.7809 115.027 67.2669 115.049 69.7219 114.781C71.6667 114.568 73.8465 114.259 75.6213 113.364L75.6275 113.361Z" fill="white"/>
<path d="M117.1 189.666C123.776 189.209 120.278 180.121 119.159 160.347C118.117 141.919 120.671 125.844 120.671 125.844C120.671 125.844 116.166 124.356 110.969 124.134C105.768 123.914 101.377 127.946 101.158 133.135C101.158 133.135 100.842 149.51 102.092 164.623C103.177 177.741 112.422 189.984 117.097 189.666H117.1Z" fill="white"/>
<path d="M88.1777 189.61C83.0265 189.61 76.1592 177.772 76.1159 165.357C76.0603 149.396 75.4048 131.829 75.4048 131.829C75.9304 126.661 82.7667 122.161 87.9396 122.689C93.1186 123.214 96.1487 127.927 96.1487 127.927C96.1487 127.927 93.8514 143.633 92.2622 165.039C91.3067 177.889 92.7847 189.607 88.1746 189.607L88.1777 189.61Z" fill="white"/>
<path d="M122.232 20.1742C122.232 20.1742 143.858 23.5326 148.304 29.8697C150.969 33.6695 150.208 36.1019 147.803 37.2595C150.14 38.9325 151.965 40.5469 152.747 41.9143C156.133 47.8316 151.9 51.2116 143.647 48.2545C136.508 45.6956 122.232 20.1773 122.232 20.1773V20.1742Z" fill="white"/>
<path d="M108.477 119.238H108.421H106.222L104.049 114.095L106.708 111.203H108.421H108.477H110.193L112.849 114.095L110.675 119.238H108.477Z" fill="#00BDD6"/>
<path d="M108.421 145.654L102.521 139.681L106.303 120.559H108.421H108.449H108.476H110.594L114.379 139.681L108.476 145.654V145.71L108.449 145.682L108.421 145.71V145.654Z" fill="#00BDD6"/>
<path d="M89.0806 68.2691C89.0806 71.2386 86.6689 73.6463 83.6944 73.6463C80.7199 73.6463 78.3113 71.2386 78.3113 68.2691C78.3113 65.2996 80.723 62.892 83.6944 62.892C86.6658 62.892 89.0806 65.2996 89.0806 68.2691Z" fill="#231F20"/>
<path d="M78.3855 61.0646C80.2654 60.8701 81.8392 60.6911 83.3543 60.8701C84.1056 60.9565 84.8353 61.1201 85.5836 61.3887C86.338 61.6511 87.0863 62.0307 87.9551 62.4444C87.4264 60.6047 85.5805 59.2002 83.5645 58.9995C82.5658 58.8884 81.564 59.0397 80.6705 59.3916C79.7831 59.7558 78.9606 60.2805 78.3886 61.0646H78.3855Z" fill="#231F20"/>
<path d="M127.869 68.2691C127.869 71.2386 130.281 73.6463 133.255 73.6463C136.23 73.6463 138.642 71.2386 138.642 68.2691C138.642 65.2996 136.23 62.892 133.255 62.892C130.281 62.892 127.869 65.2996 127.869 68.2691Z" fill="#231F20"/>
<path d="M138.564 61.0646C137.989 60.2805 137.17 59.7558 136.279 59.3916C135.386 59.0397 134.384 58.8884 133.385 58.9995C131.369 59.1971 129.523 60.6047 128.995 62.4444C129.867 62.0307 130.615 61.6511 131.366 61.3887C132.114 61.1201 132.841 60.9535 133.595 60.8701C135.107 60.6911 136.681 60.8701 138.561 61.0646H138.564Z" fill="#231F20"/>
<path d="M77.4734 53.2613C79.0225 52.6809 80.417 51.8136 81.4404 50.6313C82.4793 49.4676 83.1997 48.0631 83.6079 46.5568C83.8181 45.8036 83.9449 45.0258 84.0376 44.2479C84.1211 43.4885 84.149 42.6335 84.0902 41.976C84.0438 41.4389 84.2974 40.8957 84.789 40.5962C85.4816 40.1734 86.3875 40.3925 86.8111 41.084L86.9008 41.2321C88.5921 43.9948 90.8121 46.779 93.397 48.3842C94.6925 49.1713 96.0499 49.6281 97.3547 49.5726C98.0102 49.551 98.6564 49.3997 99.2996 49.1589C99.4573 49.091 99.618 49.0324 99.7788 48.9521L99.9767 48.8564L100.267 48.699C100.515 48.5508 100.778 48.3749 101.031 48.1619C103.028 46.5383 103.616 43.2478 103.446 40.0067C103.313 36.7409 102.546 33.3053 101.529 30.1414L101.489 30.0117C101.316 29.4715 101.439 28.8542 101.866 28.422C102.478 27.7954 103.483 27.7831 104.114 28.3943C105.459 29.703 107.094 30.9779 108.749 32.0521C110.409 33.151 112.165 34.114 114.027 34.7931C115.879 35.4876 117.839 35.9352 119.836 35.9105C121.831 35.9105 123.85 35.4105 125.72 34.4721C124.109 35.8056 122.087 36.71 119.938 37.065C117.786 37.4169 115.557 37.2378 113.439 36.7316C111.318 36.2069 109.29 35.3827 107.373 34.3764C106.937 34.1387 106.507 33.8918 106.086 33.6387C106.142 33.8424 106.201 34.0461 106.253 34.2529C106.705 36.0433 107.07 37.8768 107.218 39.7752C107.348 41.6674 107.329 43.6398 106.835 45.64C106.355 47.6156 105.323 49.7176 103.545 51.1622C103.115 51.5172 102.642 51.8383 102.119 52.1315L101.826 52.2858C101.634 52.3877 101.563 52.4124 101.427 52.4803C101.189 52.5976 100.932 52.6933 100.682 52.7921C99.6644 53.1717 98.5544 53.4002 97.432 53.4063C95.1687 53.4403 93.0507 52.5883 91.4027 51.4339C89.7269 50.2794 88.3849 48.8657 87.2131 47.381C86.9132 46.9982 86.6287 46.6124 86.3597 46.2203C86.236 46.6062 86.1062 46.9889 85.9516 47.3655C85.2404 49.1003 84.183 50.7486 82.7236 51.9617C81.2703 53.1779 79.5234 53.9619 77.7517 54.2645C75.9769 54.5855 74.2021 54.5268 72.4954 54.2336C74.2207 54.1163 75.9243 53.8416 77.4796 53.2643L77.4734 53.2613Z" fill="#231F20"/>
<path d="M127.974 78.1901C126.329 87.1263 118.491 93.8986 109.064 93.8986C99.6366 93.8986 91.7985 87.1263 90.1536 78.1901H127.974Z" fill="#404044"/>
<path d="M120.229 90.3271C117.081 92.5743 113.229 93.9016 109.064 93.9016C104.899 93.9016 101.043 92.5774 97.8989 90.3271C99.38 86.2958 103.82 84.2894 109.064 84.2894C114.308 84.2894 118.748 86.2958 120.229 90.3271Z" fill="#E23D3A"/>
<path d="M28.9883 104.894L41.789 98.7571L28.2895 70.6953L38.3291 65.8861L31.8205 52.3568L21.781 57.1691L19.6104 52.6593L29.65 47.8471L23.1414 34.3177L13.1049 39.13L2.31088 44.3034L0.304199 45.2665L28.9883 104.894Z" fill="#F28500"/>
<path d="M23.4907 128.804C29.2139 140.703 43.5173 145.716 55.4368 140.003C67.3563 134.289 72.3777 120.01 66.6545 108.11C60.9313 96.2106 46.6279 91.1977 34.7053 96.9113C22.7858 102.628 17.7644 116.907 23.4876 128.804H23.4907ZM55.9656 113.234C58.8535 119.241 56.3211 126.449 50.3042 129.332C44.2872 132.218 37.0675 129.687 34.1796 123.68C31.2917 117.673 33.824 110.465 39.841 107.582C45.858 104.696 53.0777 107.227 55.9656 113.234Z" fill="#F28500"/>
<path d="M56.5871 116.207C56.6211 117.096 56.5469 118 56.2903 118.843C55.607 121.108 53.7147 122.26 51.4081 122.362C48.4429 122.491 45.7653 120.349 44.8964 117.528C44.377 115.839 44.1636 114.043 44.4017 112.286C44.6707 110.299 45.7158 107.567 47.1536 106.11C48.31 104.94 51.2999 103.486 53.0097 104.193C55.5482 105.242 56.8067 107.391 56.3985 110.107C56.2687 110.962 55.9162 111.796 55.978 112.672C56.0306 113.447 56.3583 114.2 56.4696 114.972C56.5284 115.376 56.5686 115.79 56.584 116.207H56.5871Z" fill="white"/>
</g>
<defs>
<clipPath id="clip0_266_1398">
<rect width="238.848" height="199.652" fill="white" transform="translate(0.304199 0.3479)"/>
</clipPath>
</defs>
</svg>
